<svg xmlns="http://www.w3.org/2000/svg" width="150" height="150" fill="none" viewBox="0 0 150 150"><path fill="#151515" d="M75 150c41.421 0 75-33.579 75-75S116.421 0 75 0 0 33.579 0 75s33.579 75 75 75Z"/><path fill="#fff" stroke="#fff" d="M23.5 74.784c0 28.32 23.153 51.473 51.474 51.473 28.497 0 51.473-22.976 51.473-51.473 0-28.32-23.153-51.474-51.473-51.474S23.5 46.463 23.5 74.784Zm3.822 0c0-26.182 21.296-47.652 47.652-47.652s47.651 21.47 47.651 47.652c0 26.182-21.295 47.651-47.651 47.651-26.182 0-47.652-21.295-47.652-47.651Z"/><path fill="#fff" d="M68.327 104c-10.61 0-19.137-7.884-19.137-17.457 0-.751 0-1.502.19-2.253 1.705-18.02 17.052-34.164 17.81-34.915.379-.375.758-.375 1.137-.375s.758.188 1.137.375c0 0 1.515 1.69 3.6 4.318.568.563.379 1.69-.19 2.065-.568.563-1.705.375-2.084-.188-.947-1.126-1.705-2.253-2.463-2.816-3.6 4.13-14.59 17.645-15.916 31.911-.19.751-.19 1.314-.19 1.878 0 7.884 7.2 14.453 16.106 14.453 5.874 0 11.179-2.815 14.02-7.508.38-.75 1.327-.939 2.085-.563.758.375.947 1.314.568 2.065-3.22 5.631-9.663 9.01-16.673 9.01Z"/><path fill="#fff" d="M86.501 87c-7.908 0-14.311-5.984-14.311-13.09 0-.561 0-1.122.188-1.683C73.696 58.95 84.995 46.795 85.56 46.421c.565-.561 1.695-.561 2.26 0 .565.56 11.863 12.529 13.182 25.993 0 .56.188 1.122.188 1.683C100.813 81.016 94.41 87 86.501 87Zm0-37.587c-2.824 3.366-10.357 12.903-11.298 23.001 0 .56-.188.935-.188 1.309 0 5.61 5.084 10.098 11.298 10.098 6.215 0 11.299-4.488 11.299-10.098 0-.374 0-.748-.188-1.309-.754-9.911-8.098-19.635-10.923-23.001Z"/><path fill="#fff" stroke="#151515" stroke-width="5" d="m37.588 107.905-1.834 1.792 1.837 1.788 1.855 1.806 1.746 1.701 1.745-1.704 71.354-69.693 1.834-1.791-1.837-1.789-1.854-1.806-1.747-1.701-1.744 1.703-71.355 69.694Z"/><path fill="#fff" stroke="#fff" d="m38.986 109.336-.367.358.368.358 1.854 1.806.35.34.349-.34 71.354-69.694.367-.358-.367-.358-1.855-1.806-.349-.34-.349.34-71.355 69.694Z"/></svg>